<svg width="150" height="42" viewBox="0 0 150 42" fill="none" xmlns="http://www.w3.org/2000/svg">
<path fill-rule="evenodd" clip-rule="evenodd" d="M11.1995 27.4224C11.4239 27.5457 11.7116 27.5335 11.9111 27.3507L11.9183 27.3573C12.5192 26.81 13.6127 25.8384 14.2277 25.3111C14.4729 25.1062 14.4296 24.7728 14.2376 24.4925C14.1789 24.4096 14.1198 24.3284 14.0611 24.2476C13.5687 23.5703 13.101 22.9271 13.101 21.6372V16.8368C13.101 16.6716 13.1019 16.5075 13.1028 16.3446C13.1132 14.5022 13.1228 12.8213 11.7768 11.5343C10.6215 10.4002 8.70563 10 7.2404 10C4.37451 10 1.17622 11.0946 0.505605 14.7178C0.434205 15.1026 0.70853 15.305 0.955184 15.3616L3.87403 15.6849C4.14733 15.6709 4.34513 15.3962 4.3974 15.1187C4.64781 13.8707 5.66961 13.2685 6.81815 13.2685C7.43752 13.2685 8.14229 13.5019 8.50851 14.0688C8.88699 14.6363 8.88101 15.3911 8.87564 16.0695C8.87501 16.1485 8.87439 16.2266 8.87439 16.3032V16.7033C8.60341 16.7344 8.31953 16.7639 8.02717 16.7942C6.43539 16.9594 4.59235 17.1506 3.21162 17.7707C1.32414 18.6046 0 20.3052 0 22.8066C0 26.0079 1.97186 27.6086 4.50774 27.6086C6.64905 27.6086 7.82014 27.0917 9.47292 25.3691C9.55662 25.4929 9.63171 25.6071 9.70244 25.7146C10.0939 26.3096 10.352 26.7019 11.1995 27.4224ZM8.8745 19.9958C8.87445 19.9436 8.87439 19.8912 8.87439 19.8383V19.1715C6.69619 19.1715 4.39501 19.6489 4.39501 22.2729C4.39501 23.6066 5.07142 24.5072 6.22646 24.5072C7.07164 24.5072 7.83244 23.9739 8.31105 23.1068C8.87669 22.0864 8.87569 21.1271 8.8745 19.9958ZM51.3924 27.3507C51.1929 27.5335 50.9055 27.5457 50.6808 27.4224C49.8329 26.7013 49.5748 26.3089 49.183 25.7132L49.1829 25.713C49.1125 25.606 49.0378 25.4924 48.9545 25.3691C47.3011 27.0917 46.13 27.6086 43.989 27.6086C41.4535 27.6086 39.4809 26.0079 39.4809 22.8066C39.4809 20.3052 40.8051 18.6046 42.6929 17.7707C44.0734 17.1506 45.9167 16.9594 47.5087 16.7942L47.5088 16.7942C47.8012 16.7638 48.085 16.7344 48.356 16.7033V16.3032C48.356 16.2269 48.3566 16.1493 48.3572 16.0706C48.3625 15.3919 48.3685 14.6366 47.9898 14.0688C47.6232 13.5019 46.9191 13.2685 46.2991 13.2685C45.1505 13.2685 44.1294 13.8707 43.8783 15.1187C43.8264 15.3962 43.6283 15.6709 43.3553 15.6849L40.4361 15.3616C40.1898 15.305 39.9158 15.1026 39.9869 14.7178C40.6578 11.0946 43.8558 10 46.722 10C48.1869 10 50.1027 10.4002 51.2578 11.5343C52.6038 12.8211 52.5942 14.5016 52.5838 16.3437C52.5828 16.5069 52.5819 16.6713 52.5819 16.8368V21.6372C52.5819 22.9262 53.0495 23.5694 53.5414 24.2461C53.6004 24.3274 53.6598 24.4091 53.7188 24.4925C53.9112 24.7728 53.9546 25.1062 53.7089 25.3111C53.0937 25.8384 52.0008 26.81 51.3992 27.3573L51.3924 27.3507ZM48.356 19.8383L48.3561 19.994C48.3573 21.1261 48.3582 22.0859 47.7923 23.1068C47.3134 23.9739 46.5529 24.5072 45.7074 24.5072C44.5523 24.5072 43.8763 23.6066 43.8763 22.2729C43.8763 19.6489 46.1771 19.1715 48.356 19.1715V19.8383ZM130.543 26.8258C130.543 27.1354 130.793 27.3846 131.105 27.3944H132.422C132.724 27.3745 132.963 27.1295 132.963 26.8265L132.963 17.7113C132.963 16.3136 133.104 14.9492 133.835 13.8511C134.403 12.9861 135.362 12.2445 136.311 12.1903C137.225 12.2396 138.097 12.8603 138.583 13.8175C139.005 14.6497 139.061 15.7478 139.061 16.6796L139.067 26.8258C139.067 27.1354 139.317 27.3846 139.63 27.3944H140.946C141.222 27.3759 141.444 27.1711 141.482 26.9089V18.2768L141.482 18.1192C141.481 16.5979 141.48 15.4031 142.268 14.0839C142.892 13.0242 143.857 12.2438 144.909 12.1903C145.85 12.2389 146.726 12.8949 147.185 13.9507C147.59 14.8799 147.585 15.944 147.58 16.9728V16.974V16.9753V16.9766C147.579 17.0888 147.579 17.2006 147.579 17.3118V26.9034C147.617 27.1767 147.851 27.3853 148.135 27.3944H149.459C149.761 27.3745 150 27.1295 149.999 26.8265L150 17.3118L150 17.1384C150.001 15.6116 150.002 13.833 149.325 12.4867C148.594 11.0226 147.188 10.0577 145.727 10.0577L145.606 10.0594L145.498 10.0577C143.431 10.0577 141.863 11.5671 141.031 13.6931C140.497 11.5399 139.06 10.0577 137.096 10.0577L136.984 10.0594L136.869 10.0577C135.017 10.0577 133.552 11.4892 132.766 13.3164V11.0104C132.742 10.7172 132.492 10.4896 132.188 10.4896L131.082 10.49C130.795 10.5089 130.565 10.7311 130.543 11.01V26.8258ZM17.125 27.3902H20.1364C20.4575 27.3902 20.7178 27.1368 20.7175 26.8209L20.7185 18.4389L20.7183 18.2401C20.7154 16.431 20.7115 14.0797 22.799 14.0797C24.7189 14.0797 24.6866 16.1756 24.6603 17.8803V17.8804V17.8806V17.8807V17.8808V17.8809V17.881V17.8811V17.8813C24.6573 18.0733 24.6544 18.2604 24.6544 18.4389L24.6575 26.8223C24.6575 27.1253 24.8959 27.3703 25.1983 27.3902H28.2063C28.5271 27.3902 28.7874 27.1368 28.7874 26.8209V18.4389C28.7874 18.3713 28.7872 18.3012 28.7871 18.2291C28.785 17.3431 28.7823 16.1494 29.0682 15.4109C29.3774 14.6119 30.1368 14.1129 30.8675 14.1129C31.739 14.1129 32.4137 14.4124 32.6385 15.4773C32.7522 15.9881 32.7373 17.1724 32.7273 17.9594V17.9598V17.9601V17.9605V17.9608V17.9612V17.9615V17.9618V17.9621C32.725 18.1481 32.7229 18.3117 32.7229 18.4389L32.7236 26.8223C32.7236 27.1253 32.962 27.3703 33.2644 27.3902H36.2727C36.5932 27.3902 36.8535 27.1368 36.8535 26.8209L36.8559 16.8417C36.8559 16.5971 36.86 16.3475 36.8641 16.0957V16.0956V16.0955V16.0955V16.0954V16.0953V16.0952V16.0952V16.0951C36.8886 14.6001 36.9144 13.0223 36.0964 11.8834C35.253 10.6854 33.8755 10.1531 32.6105 10.1531C30.8392 10.1531 29.1806 11.0848 28.4499 13.0815C27.6064 11.0848 26.4254 10.1531 24.542 10.1531C22.6866 10.1531 21.3092 11.0848 20.5781 13.0815H20.5218V11.0167C20.5033 10.7283 20.2676 10.5012 19.9741 10.4858L17.1694 10.4865C16.8483 10.4865 16.5883 10.7395 16.5883 11.0558L16.5862 26.8695C16.6091 27.1504 16.8384 27.371 17.125 27.3902ZM56.2475 13.2769V11.0174C56.2489 10.6735 56.5024 10.4442 56.8075 10.4449L66.7071 10.4439C67.0234 10.4439 67.2776 10.6794 67.2783 11.0146L67.2776 12.9525C67.2752 13.2776 67.0077 13.7019 66.5322 14.375L61.4044 21.865C63.3079 21.8196 65.3214 22.1107 67.0511 23.1054C67.4409 23.3294 67.5454 23.6618 67.5762 23.9875V26.3983C67.5762 26.7307 67.2209 27.1151 66.8475 26.9152C63.8002 25.2824 59.7567 25.1035 56.3876 26.9348C56.0432 27.1225 55.6828 26.7436 55.6828 26.4113V24.1193C55.6828 23.7527 55.6897 23.1253 56.0511 22.5661L61.9923 13.8465L56.8194 13.8458C56.5034 13.8458 56.2496 13.6152 56.2475 13.2769ZM56.1292 30.4865C57.9563 30.263 61.9998 29.7682 62.722 30.7139C63.4451 31.6607 61.9197 35.5593 61.2367 37.3048L61.2367 37.3048L61.2353 37.3085C61.0286 37.8363 61.472 38.0491 61.9387 37.6496C64.972 35.0539 65.7556 29.6147 65.1342 28.8291C64.5179 28.0511 59.2152 27.3794 55.979 29.7049C55.4813 30.0624 55.567 30.5556 56.1191 30.4878L56.1292 30.4865ZM39.4604 40C46.5184 40 54.7154 37.7297 60.3689 33.4613C61.3046 32.755 60.5032 31.6953 59.5473 32.1105C53.2091 34.8607 46.3206 36.1912 40.0542 36.1912C30.7647 36.1912 21.7707 33.5836 14.4979 29.2537C13.8618 28.8749 13.3897 29.5431 13.9188 30.0317C20.6605 36.2593 29.568 40 39.4604 40ZM75.8281 13.3807C73.6069 13.3807 73.4665 16.4755 73.4665 18.4054V18.4725C73.4661 20.4295 73.4655 24.4621 75.8001 24.4621C78.1338 24.4621 78.2458 21.1342 78.2458 19.1044C78.2458 17.7735 78.1898 16.1759 77.7962 14.9115C77.4584 13.8133 76.7836 13.3807 75.8281 13.3807ZM75.8001 10.1531C80.2703 10.1531 82.6876 14.0797 82.6876 19.0712C82.6876 23.8959 80.0175 27.7233 75.8001 27.7233C71.4143 27.7233 69.0247 23.7963 69.0247 18.9048C69.0247 13.9797 71.4423 10.1531 75.8001 10.1531ZM85.4842 27.3902H88.4846C88.8054 27.3902 89.0658 27.1368 89.0712 26.8209V18.3058C89.0712 17.2408 89.1279 16.2759 89.5495 15.3109C89.8863 14.5455 90.561 14.0465 91.2921 14.0465C93.211 14.0465 93.1927 16.1978 93.1782 17.8897L93.1782 17.8915C93.177 18.0333 93.1758 18.1719 93.1758 18.3058V26.8918C93.2086 27.1623 93.4334 27.3717 93.7122 27.3902H96.7315C97.029 27.3902 97.2747 27.1725 97.3088 26.8918V16.9413C97.3088 15.4109 97.3088 13.2811 96.5214 12.0166C95.6779 10.6522 94.3562 10.1531 93.0071 10.1531C90.9266 10.1531 89.7463 11.1844 88.9028 13.3475H88.8461V10.9286C88.7907 10.6833 88.5738 10.4994 88.3111 10.4858L85.5173 10.4865C85.2139 10.4865 84.9642 10.7137 84.9389 11.0027L84.9437 26.8223C84.9437 27.1253 85.1825 27.3703 85.4842 27.3902ZM99.1963 26.1355C99.1963 25.3397 99.8604 24.6945 100.679 24.6945C101.498 24.6945 102.161 25.3397 102.161 26.1355C102.161 26.931 101.498 27.5758 100.679 27.5758C99.8604 27.5758 99.1963 26.931 99.1963 26.1355ZM122.344 25.562C123.75 25.5152 124.859 24.6243 125.515 23.1351C126.105 21.8042 126.218 20.2734 126.218 18.8094C126.218 17.2118 126.049 15.5482 125.319 14.1838C124.664 12.9903 123.535 12.2347 122.339 12.1892C121.008 12.2392 119.822 13.1598 119.221 14.5829C118.687 15.8142 118.518 17.445 118.518 18.8094C118.518 20.3398 118.715 22.1034 119.334 23.4346C119.934 24.6956 121.093 25.5169 122.344 25.562ZM122.029 27.7275C117.756 27.7275 115.845 23.2682 115.845 18.8094C115.845 14.1171 118.094 10.0577 122.395 10.0577L122.506 10.0587L122.622 10.0577C126.811 10.0577 128.892 14.3834 128.892 18.8422C128.892 23.5678 126.586 27.7275 122.257 27.7275L122.146 27.7261L122.029 27.7275ZM112.019 21.8227C111.601 23.8617 110.594 25.4344 108.676 25.4959C105.789 25.3984 105.104 21.4704 105.104 18.7758C105.104 15.9844 105.925 12.35 108.812 12.2556C110.624 12.3168 111.712 13.857 112.032 15.7943C112.074 16.0669 112.256 16.3126 112.532 16.3528L113.862 16.3689C114.139 16.336 114.375 16.1106 114.375 15.8502C113.919 12.3801 111.817 10.0577 108.871 10.0577L108.755 10.0587L108.643 10.0577C104.398 10.0577 102.543 14.5497 102.543 18.9422C102.543 23.3682 104.37 27.7275 108.615 27.7275L108.725 27.7261L108.843 27.7275C111.759 27.7275 113.806 25.3712 114.391 21.9031C114.414 21.6176 114.139 21.3834 113.84 21.3673L112.571 21.3729C112.291 21.3729 112.101 21.5687 112.019 21.8227Z" fill="#969696"/>
</svg>
