<svg width="42" height="30" viewBox="0 0 42 30" fill="none" xmlns="http://www.w3.org/2000/svg">
<path fill-rule="evenodd" clip-rule="evenodd" d="M34.7502 7.66658H30.1668V3.99992C30.1668 1.98325 28.5168 0.333252 26.5002 0.333252H4.50016C2.4835 0.333252 0.833496 1.98325 0.833496 3.99992V20.4999C0.833496 22.5166 2.4835 24.1666 4.50016 24.1666C4.50016 27.2099 6.95683 29.6666 10.0002 29.6666C13.0435 29.6666 15.5002 27.2099 15.5002 24.1666H26.5002C26.5002 27.2099 28.9568 29.6666 32.0002 29.6666C35.0435 29.6666 37.5002 27.2099 37.5002 24.1666H39.3335C40.3418 24.1666 41.1668 23.3416 41.1668 22.3333V16.2283C41.1668 15.4399 40.9102 14.6699 40.4335 14.0282L36.2168 8.39992C35.8685 7.94158 35.3185 7.66658 34.7502 7.66658ZM10.0002 25.9999C8.99183 25.9999 8.16683 25.1749 8.16683 24.1666C8.16683 23.1583 8.99183 22.3333 10.0002 22.3333C11.0085 22.3333 11.8335 23.1583 11.8335 24.1666C11.8335 25.1749 11.0085 25.9999 10.0002 25.9999ZM34.7502 10.4166L38.3435 14.9999H30.1668V10.4166H34.7502ZM32.0002 25.9999C30.9918 25.9999 30.1668 25.1749 30.1668 24.1666C30.1668 23.1583 30.9918 22.3333 32.0002 22.3333C33.0085 22.3333 33.8335 23.1583 33.8335 24.1666C33.8335 25.1749 33.0085 25.9999 32.0002 25.9999Z" fill="#3167EB"/>
</svg>
