<svg width="150" height="42" viewBox="0 0 150 42" fill="none" xmlns="http://www.w3.org/2000/svg">
<path fill-rule="evenodd" clip-rule="evenodd" d="M14.073 10.6439V6.00363H10.1682C10.1682 6.00363 7.484 5.83802 5.45035 7.74368C3.4167 9.64963 3.90472 11.9696 3.90472 11.9696V16.1958H0V21.1678H3.74214V35.3369H9.27349V21.2321H13.5037L14.073 16.1958H9.27349V12.5498C9.27349 10.3124 11.5513 10.6439 11.5513 10.6439H14.073ZM23.5304 31.484C25.5087 31.484 27.1126 29.677 27.1126 27.7549V24.1092C27.1126 22.1871 25.5087 20.3804 23.5304 20.3804C21.5519 20.3804 19.948 22.1871 19.948 24.1092V27.7549C19.948 29.677 21.5519 31.484 23.5304 31.484ZM27.4104 18.8071V16.2787H32.742V35.337H27.4138L27.4504 32.8787C26.0363 34.8023 24.0461 35.9997 21.8416 35.9997C17.5511 35.9997 14.073 32.1053 14.073 25.8698C14.073 19.5932 17.5511 15.7399 21.8416 15.7399C24.0254 15.7399 25.9991 16.9153 27.4104 18.8071ZM76.5633 23.985C76.5633 22.0629 78.1672 20.2559 80.1455 20.2559C82.1241 20.2559 83.7279 22.0629 83.7279 23.985V27.6307C83.7279 29.5528 82.1241 31.3595 80.1455 31.3595C78.1672 31.3595 76.5633 29.5528 76.5633 27.6307V23.985ZM76.2655 35.4612V32.9327C77.6768 34.8246 79.6505 36 81.8344 36C86.1248 36 89.6029 32.1467 89.6029 25.8698C89.6029 19.6346 86.1248 15.7399 81.8344 15.7399C79.6298 15.7399 77.6397 16.9376 76.2255 18.8608L76.2621 6.27442L70.7212 6.90954V35.3743L76.2655 35.4612ZM40.5103 25.9916C40.5103 31.6264 44.7811 31.3777 44.7811 31.3777C47.6689 31.4191 48.6858 30.3834 48.6858 30.3834L50.0279 34.4851C47.7095 36.2252 40.7138 36.515 37.5819 33.5734C34.872 31.0282 34.8726 26.9033 34.9219 25.8375C34.8726 24.7716 34.872 20.647 37.5819 18.1015C40.7138 15.1599 47.7095 15.45 50.0279 17.1901L48.6858 21.2918C48.6858 21.2918 47.6689 20.2558 44.7811 20.2975C44.7811 20.2975 40.5103 20.0488 40.5103 25.6836V25.9916ZM56.4136 24.0262C56.4136 24.0262 56.1288 19.8003 59.8709 19.8003C63.6128 19.8003 63.328 24.0262 63.328 24.0262H56.4136ZM68.4122 27.8792C68.4122 27.8792 70.6491 15.947 59.9522 15.8824C49.255 15.8175 50.8006 26.6777 50.8006 26.6777C51.0448 33.2653 54.0138 35.1712 59.0981 35.7926C64.1821 36.4142 68.0462 34.4254 68.0462 34.4254L66.8666 30.5724C66.8666 30.5724 62.7587 31.8567 59.5048 31.5666C56.251 31.2768 56.4949 27.8792 56.4949 27.8792H68.4122ZM100.578 31.3832C102.608 31.3832 104.254 29.5762 104.254 27.6541V24.0084C104.254 22.0863 102.608 20.2796 100.578 20.2796C98.5478 20.2796 96.9018 22.0863 96.9018 24.0084V27.6541C96.9018 29.5762 98.5478 31.3832 100.578 31.3832ZM91.3183 25.9998C91.3183 20.2796 93.6618 16 100.625 16C107.273 16 109.932 20.4772 109.932 25.9998C109.932 32.482 105.765 35.9999 100.625 35.9999C94.3381 35.9999 91.3183 32.0685 91.3183 25.9998ZM124.806 27.6541C124.806 29.5762 123.16 31.3832 121.13 31.3832C119.1 31.3832 117.454 29.5762 117.454 27.6541V24.0084C117.454 22.0863 119.1 20.2796 121.13 20.2796C123.16 20.2796 124.806 22.0863 124.806 24.0084V27.6541ZM121.177 16C114.214 16 111.87 20.2796 111.87 25.9998C111.87 32.0685 114.89 35.9999 121.177 35.9999C126.318 35.9999 130.485 32.482 130.485 25.9998C130.485 20.4772 127.825 16 121.177 16ZM143.915 25.8249L150 35.4201H144.231L138.101 25.6587V35.4201H132.513V6.77185L138.101 6.1752V24.8189L143.78 16.2294H149.73L143.915 25.8249Z" fill="#969696"/>
</svg>
