<svg width="150" height="42" viewBox="0 0 150 42" fill="none" xmlns="http://www.w3.org/2000/svg">
<path fill-rule="evenodd" clip-rule="evenodd" d="M39.5302 17.314C39.5296 17.3444 39.529 17.382 39.5282 17.4059H39.5251C39.5239 17.3742 39.5227 17.3072 39.5215 17.1853L39.4966 14.8777H37.2111H24.3605V19.5289H34.7532C34.4037 21.9264 33.4492 23.8497 32.03 25.2422C30.2117 27.0262 27.5718 27.9984 24.4109 28.0322C24.2021 28.0345 24.2381 28.0335 24.3103 28.0316H24.3104L24.3107 28.0316H24.3107C24.414 28.0289 24.5904 28.0243 24.2328 28.0243C21.0157 28.0243 18.1204 26.7221 16.031 24.6171C13.9324 22.503 12.6394 19.5734 12.6394 16.3323C12.6394 13.0924 13.9321 10.1661 16.0295 8.05444C18.1186 5.95131 21.0144 4.65121 24.2328 4.65121C25.7502 4.65121 27.1973 4.94043 28.5229 5.46674C29.9075 6.01622 31.1571 6.81743 32.2133 7.81246L35.3846 4.43301C33.8939 3.02899 32.1471 1.90474 30.2263 1.14223C28.3691 0.405328 26.3468 0 24.2328 0C19.7408 0 15.6863 1.82763 12.7497 4.78409C9.81131 7.74206 8 11.8255 8 16.3323C8 20.839 9.81161 24.9261 12.7509 27.8875C15.6872 30.8457 19.7411 32.6755 24.2328 32.6755C24.4257 32.6755 24.3934 32.675 24.3286 32.6739L24.2985 32.6733C24.2745 32.6729 24.25 32.6724 24.2328 32.6719C24.2064 32.6709 24.1969 32.67 24.2328 32.6688C24.2641 32.6679 24.3292 32.6667 24.4474 32.6655C28.8363 32.6185 32.5881 31.184 35.2739 28.5491C37.9612 25.912 39.5227 22.1333 39.5227 17.4059H39.5251C39.5263 17.4416 39.5273 17.4321 39.5282 17.4059H39.5318C39.5318 17.2202 39.5313 17.2514 39.5302 17.314V17.314ZM51.75 15.8835C53.4157 15.8835 54.9222 16.5805 56.011 17.7072C57.1013 18.8357 57.7758 20.4027 57.7758 22.1411C57.7758 23.8794 57.1013 25.4468 56.011 26.575C54.9222 27.7017 53.4157 28.3987 51.75 28.3987C50.084 28.3987 48.5776 27.7017 47.4888 26.575C46.3985 25.4468 45.724 23.8794 45.724 22.1411C45.724 20.4027 46.3985 18.8357 47.4888 17.7072C48.5776 16.5805 50.084 15.8835 51.75 15.8835ZM59.1965 14.7675C57.2891 12.8728 54.6562 11.7007 51.75 11.7007C48.8438 11.7007 46.2106 12.8728 44.3033 14.7675C42.3974 16.6606 41.2187 19.2681 41.2187 22.1411C41.2187 25.014 42.3974 27.6215 44.3033 29.5147C46.2106 31.4097 48.8438 32.5815 51.75 32.5815C54.6562 32.5815 57.2891 31.4097 59.1965 29.5147C61.1026 27.6215 62.2814 25.014 62.2814 22.1411C62.2814 19.2681 61.1026 16.6606 59.1965 14.7675ZM78.6613 17.7072C77.5726 16.5805 76.0661 15.8835 74.4004 15.8835C72.7344 15.8835 71.228 16.5805 70.1392 17.7072C69.0492 18.8357 68.3747 20.4027 68.3747 22.1411C68.3747 23.8794 69.0492 25.4468 70.1392 26.575C71.228 27.7017 72.7344 28.3987 74.4004 28.3987C76.0661 28.3987 77.5726 27.7017 78.6613 26.575C79.7517 25.4468 80.4261 23.8794 80.4261 22.1411C80.4261 20.4027 79.7517 18.8357 78.6613 17.7072ZM74.4004 11.7007C77.3066 11.7007 79.9395 12.8728 81.8472 14.7675C83.753 16.6606 84.9318 19.2681 84.9318 22.1411C84.9318 25.014 83.753 27.6215 81.8472 29.5147C79.9395 31.4097 77.3066 32.5815 74.4004 32.5815C71.4942 32.5815 68.8613 31.4097 66.9536 29.5147C65.0478 27.6215 63.8687 25.014 63.8687 22.1411C63.8687 19.2681 65.0478 16.6606 66.9536 14.7675C68.8613 12.8728 71.4942 11.7007 74.4004 11.7007ZM96.8706 15.8835C98.4572 15.8835 99.8923 16.5805 100.929 17.7072C101.968 18.8357 102.61 20.4027 102.61 22.1411C102.61 23.8794 101.968 25.4468 100.929 26.575C99.8923 27.7017 98.4572 28.5136 96.8706 28.5136C93.4929 28.5136 91.1308 25.654 91.1308 22.1411C91.1308 20.4027 91.7731 18.8357 92.8118 17.7072C93.8489 16.5805 95.2836 15.8835 96.8706 15.8835ZM102.174 14.1067C100.629 12.6043 98.9095 11.7007 96.0742 11.7007C91.326 11.7007 86.5459 16.3382 86.5459 22.1411C86.5459 25.014 87.6125 27.6215 89.3369 29.5147C91.0628 31.4097 93.8857 32.5815 96.5149 32.5815C98.8263 32.5815 100.605 31.676 102.174 30.1702V32.4559C102.174 35.8424 99.401 37.8977 97.1903 37.8977C94.0699 37.8977 92.4014 36.6198 91.2834 34.1397L87.3347 35.924C88.2757 38.0119 89.6475 39.4943 91.2555 40.4866C93.0628 41.602 95.1307 42 97.1903 42C99.4457 42 101.724 41.0458 103.42 39.5339C105.18 37.9644 106.48 34.9555 106.48 32.1813V12.2895H102.174V14.1067ZM109.264 31.9832H113.71V1.3441H109.264V31.9832ZM131.192 25.632C128.855 29.5375 122.688 29.4914 120.937 25.3108C123.632 24.223 126.318 23.1223 129.005 22.0216C131.002 21.2032 133 20.3848 135 19.5719C133.448 15.5622 131.325 13.2552 128.71 12.3028C124.682 10.8363 120.778 12.2034 118.247 14.8923C115.145 18.1886 114.187 25.1416 118.664 29.6731C120.496 31.5275 122.948 32.6722 125.995 32.6688C129.416 32.6499 132.557 31.1664 134.713 27.9981L131.192 25.632ZM129.699 17.9533L120.23 21.7768C120.091 19.766 121.169 17.9868 122.399 16.9446C125.599 14.7555 128.027 15.7987 129.699 17.9533Z" fill="#969696"/>
</svg>
