<svg width="150" height="42" viewBox="0 0 150 42" fill="none" xmlns="http://www.w3.org/2000/svg">
<path fill-rule="evenodd" clip-rule="evenodd" d="M147.187 2H114.796C113.248 2 111.99 3.22656 111.99 4.73813V37.2587C111.99 38.7719 113.248 40 114.796 40H147.187C148.737 40 150 38.7719 150 37.2587V4.73813C150 3.22656 148.737 2 147.187 2ZM120.446 7.23169C122.248 7.23169 123.713 8.69602 123.713 10.4987C123.713 12.3029 122.248 13.7672 120.446 13.7672C118.639 13.7672 117.176 12.3029 117.176 10.4987C117.176 8.69602 118.639 7.23169 120.446 7.23169ZM123.263 34.381H117.626V16.2462H123.263V34.381ZM126.8 16.2462H132.207V18.7242H132.282C133.035 17.2984 134.874 15.7955 137.616 15.7955C143.325 15.7955 144.379 19.5517 144.379 24.434V34.3811H138.745V25.5621C138.745 23.4591 138.707 20.754 135.816 20.754C132.883 20.754 132.432 23.0448 132.432 25.4101V34.3811H126.8V16.2462ZM22.1268 7.22356C23.9314 7.22356 25.396 8.68789 25.396 10.4905C25.396 12.2963 23.9314 13.7564 22.1268 13.7564C20.3243 13.7564 18.8596 12.2963 18.8596 10.4905C18.8596 8.68789 20.3243 7.22356 22.1268 7.22356ZM19.3088 34.3729H24.9447V16.2381H19.3088V34.3729ZM0 7.62011V34.3802H16.7191V28.9712H5.86364V7.62011H0ZM54.1356 7.61823H48.5021V34.3802H54.1356V25.4156H54.209L60.1882 34.3802H67.27L60.0333 24.6265L67.4244 16.23H60.5176L54.1356 23.6119V7.61823ZM28.0615 16.2407H33.4712V18.7197H33.5466C34.2973 17.2923 36.1386 15.7905 38.8808 15.7905C44.5921 15.7905 45.6437 19.5462 45.6437 24.4279V34.3729H40.0081V25.5555C40.0081 23.4515 39.9693 20.7482 37.0762 20.7482C34.1466 20.7482 33.6971 23.0398 33.6971 25.4051V34.3729H28.0615V16.2407ZM76.3545 34.8409C79.2867 34.8409 82.253 33.5251 84.0565 31.2335L80.1123 28.3413C79.1727 29.6182 77.934 30.5577 76.0924 30.5577C73.913 30.5577 72.2949 29.168 71.8475 27.0268H84.9212V25.2614C84.9212 19.4405 81.6184 15.6848 76.3545 15.6848C70.7205 15.6848 66.212 19.4405 66.212 25.2614C66.212 31.0831 70.7205 34.8409 76.3545 34.8409ZM75.8276 19.7413C77.8585 19.7413 79.3234 21.3191 79.2867 23.1972H71.8475C71.9962 21.4315 73.3497 19.7413 75.8276 19.7413ZM106.355 34.3703H101.169V31.9655H101.096C100.229 33.2796 98.0518 34.8208 95.4962 34.8208C90.0847 34.8208 86.5164 30.916 86.5164 25.3938C86.5164 20.3226 89.6719 15.6652 94.8561 15.6652C97.1876 15.6652 99.366 16.3033 100.644 18.0687H100.717V7.6181H106.355V34.3703ZM96.6581 20.6234C93.8426 20.6234 92.1523 22.5029 92.1523 25.2426C92.1523 27.9868 93.8426 29.8622 96.6581 29.8622C99.4776 29.8622 101.169 27.9868 101.169 25.2426C101.169 22.5029 99.4776 20.6234 96.6581 20.6234Z" fill="#969696"/>
</svg>
