<svg width="36" height="39" viewBox="0 0 36 39" fill="none" xmlns="http://www.w3.org/2000/svg">
<path fill-rule="evenodd" clip-rule="evenodd" d="M4.33317 19.0833V26.4167C4.33317 27.9383 5.5615 29.1667 7.08317 29.1667C8.60484 29.1667 9.83317 27.9383 9.83317 26.4167V19.0833C9.83317 17.5617 8.60484 16.3333 7.08317 16.3333C5.5615 16.3333 4.33317 17.5617 4.33317 19.0833ZM15.3332 19.0833V26.4167C15.3332 27.9383 16.5615 29.1667 18.0832 29.1667C19.6048 29.1667 20.8332 27.9383 20.8332 26.4167V19.0833C20.8332 17.5617 19.6048 16.3333 18.0832 16.3333C16.5615 16.3333 15.3332 17.5617 15.3332 19.0833ZM3.4165 38.3333H32.7498C34.2715 38.3333 35.4998 37.105 35.4998 35.5833C35.4998 34.0617 34.2715 32.8333 32.7498 32.8333H3.4165C1.89484 32.8333 0.666504 34.0617 0.666504 35.5833C0.666504 37.105 1.89484 38.3333 3.4165 38.3333ZM26.3332 19.0833V26.4167C26.3332 27.9383 27.5615 29.1667 29.0832 29.1667C30.6048 29.1667 31.8332 27.9383 31.8332 26.4167V19.0833C31.8332 17.5617 30.6048 16.3333 29.0832 16.3333C27.5615 16.3333 26.3332 17.5617 26.3332 19.0833ZM16.3782 0.73167L1.89484 8.35834C1.14317 8.74334 0.666504 9.53167 0.666504 10.375C0.666504 11.64 1.69317 12.6667 2.95817 12.6667H33.2265C34.4732 12.6667 35.4998 11.64 35.4998 10.375C35.4998 9.53167 35.0232 8.74334 34.2715 8.35834L19.7882 0.73167C18.7248 0.163337 17.4415 0.163337 16.3782 0.73167Z" fill="#3167EB"/>
</svg>
