<svg width="150" height="42" viewBox="0 0 150 42" fill="none" xmlns="http://www.w3.org/2000/svg">
<path fill-rule="evenodd" clip-rule="evenodd" d="M74.9805 2.77862H70.1112V8.79113H67.4875V13.1297H70.1112V28.3161H74.9805V13.1297H77.6439V8.79113H74.9805V2.77862ZM62.9238 0C61.1353 0 59.7278 1.4084 59.7278 3.23542C59.7278 5.0235 61.1353 6.43267 62.9238 6.43267C64.787 6.43267 66.1953 5.0235 66.1953 3.23542C66.1953 1.4084 64.787 0 62.9238 0ZM140.325 8.33585C139.49 8.33585 138.842 7.68854 138.842 6.85053C138.842 6.05126 139.49 5.40395 140.325 5.40395C141.125 5.40395 141.771 6.05126 141.771 6.85053C141.771 7.68854 141.125 8.33585 140.325 8.33585ZM140.325 5.17679C139.376 5.17679 138.615 5.93768 138.615 6.85053C138.615 7.80212 139.376 8.56378 140.325 8.56378C141.239 8.56378 142 7.80212 142 6.85053C142 5.93768 141.239 5.17679 140.325 5.17679ZM83.3095 16.5184C83.9564 13.9305 85.9347 12.4839 88.4829 12.4839C91.032 12.4839 92.9324 13.8916 93.5419 16.5184H83.3095ZM88.5963 8.18257C82.7402 8.18257 78.2892 12.6746 78.2892 18.6497C78.2892 24.5485 82.36 28.8874 88.6728 28.8874C92.172 28.8874 95.2917 27.594 97.5738 25.157L94.3025 21.9231C92.7047 23.4459 90.9931 24.5485 88.7868 24.5485C86.1252 24.5485 84.1088 23.0257 83.4245 20.4768H98.5996V19.297C98.5996 12.6357 94.4931 8.18257 88.5963 8.18257ZM131.69 8.18257C129.295 8.18257 127.241 9.09522 125.796 10.6569V0.533733H120.926V28.3161H125.796V17.6979C125.796 14.8821 127.584 12.94 130.55 12.94C133.327 12.94 134.848 14.6525 134.848 17.6979V28.3161H139.717V16.8227C139.717 11.4188 136.331 8.18257 131.69 8.18257ZM139.945 6.81311V6.20302H140.325C140.631 6.20302 140.745 6.31832 140.745 6.50883C140.745 6.69877 140.631 6.81311 140.325 6.81311H139.945ZM140.972 6.50883C140.972 6.12838 140.705 5.9751 140.325 5.9751H139.717V7.72577H139.945V7.04104H140.325L140.745 7.72577H141.009L140.555 7.00381C140.821 6.96411 140.972 6.81311 140.972 6.50883ZM110.695 12.9026C112.749 12.9026 114.423 13.9677 115.716 15.4532L119.101 12.1035C117.2 9.70531 114.194 8.18257 110.772 8.18257C104.877 8.18257 100.236 12.6746 100.236 18.5344C100.236 24.3959 104.877 28.8874 110.772 28.8874C114.194 28.8874 117.2 27.3643 119.101 24.9686L115.716 21.6189C114.461 23.0649 112.749 24.168 110.658 24.168C107.538 24.168 105.142 21.7326 105.142 18.5344C105.142 15.3372 107.538 12.9026 110.695 12.9026ZM60.5272 28.3161H65.3967V8.79113H60.5272V28.3161ZM25.3063 24.168C22.1867 24.168 19.7138 21.6952 19.7138 18.4972C19.7138 15.3372 22.1867 12.9026 25.3063 12.9026C28.4628 12.9026 30.9355 15.3372 30.9355 18.5344C30.9355 21.7326 28.4628 24.168 25.3063 24.168ZM25.3063 8.18257C19.4099 8.18257 14.7698 12.6746 14.7698 18.5344C14.7698 24.3959 19.4099 28.8874 25.3063 28.8874C31.2015 28.8874 35.8413 24.3959 35.8413 18.5344C35.8413 12.6746 31.2015 8.18257 25.3063 8.18257ZM8 28.3161H12.8694V0.533733H8V28.3161ZM48.0513 24.168C44.9332 24.168 42.4604 21.6952 42.4604 18.4972C42.4604 15.3372 44.9332 12.9026 48.0513 12.9026C51.2085 12.9026 53.6812 15.3372 53.6812 18.5344C53.6812 21.7326 51.2085 24.168 48.0513 24.168ZM58.3974 12.6746V8.79113H51.5498C50.4479 8.41221 49.2691 8.18257 48.0513 8.18257C42.1563 8.18257 37.5165 12.6746 37.5165 18.5344C37.5165 24.3959 42.1563 28.8874 48.0513 28.8874C53.9464 28.8874 58.588 24.3959 58.588 18.5344C58.588 16.5556 58.0544 14.6152 56.9899 13.1687L58.3974 12.6746ZM48.0513 35.2434C44.9332 35.2434 42.4604 32.8082 42.4604 29.6491H37.5165C37.5165 35.5104 42.1563 40 48.0513 40C53.9464 40 58.588 35.5104 58.588 29.6491H53.6423C53.6423 32.8082 51.1694 35.2434 48.0513 35.2434Z" fill="#969696"/>
</svg>
