<svg width="161" height="46" viewBox="0 0 161 46" fill="none" xmlns="http://www.w3.org/2000/svg">
<g opacity="0.29927">
<path fill-rule="evenodd" clip-rule="evenodd" d="M14.6153 18.7574L28.7574 4.61527C31.1006 2.27212 34.8995 2.27212 37.2427 4.61527L51.3848 18.7574C53.728 21.1006 53.728 24.8995 51.3848 27.2427L37.2427 41.3848C34.8995 43.728 31.1006 43.728 28.7574 41.3848L14.6153 27.2427C12.2721 24.8995 12.2721 21.1006 14.6153 18.7574Z" fill="#3167EB"/>
</g>
<path fill-rule="evenodd" clip-rule="evenodd" d="M2.61527 18.7574L16.7574 4.61527C19.1006 2.27212 22.8995 2.27212 25.2427 4.61527L39.3848 18.7574C41.728 21.1006 41.728 24.8995 39.3848 27.2427L25.2427 41.3848C22.8995 43.728 19.1006 43.728 16.7574 41.3848L2.61527 27.2427C0.272124 24.8995 0.272124 21.1006 2.61527 18.7574Z" fill="#3167EB"/>
<path opacity="0.32959" fill-rule="evenodd" clip-rule="evenodd" d="M15.6522 22.9305L15.1754 23.4072C15.1508 23.4318 15.1486 23.5024 15.1697 23.5264L20.4954 29.5546L27.0567 22.9909L21.0263 17.6699C21.0032 17.6495 20.9308 17.6518 20.9071 17.6755L20.4303 18.1523L21.3859 19.108C21.6498 19.3718 21.6498 19.7997 21.3859 20.0636C21.122 20.3275 20.6942 20.3275 20.4303 20.0636L19.4747 19.108L16.6078 21.9748L17.5634 22.9305C17.8273 23.1943 17.8273 23.6222 17.5634 23.8861C17.2995 24.15 16.8717 24.15 16.6078 23.8861L15.6522 22.9305Z" fill="white"/>
<path fill-rule="evenodd" clip-rule="evenodd" d="M14.6967 17.1967C16.0155 15.8779 18.1562 15.8781 19.4737 17.1956L19.9516 16.7199C20.48 16.1916 21.3624 16.164 21.9206 16.6565L28.0187 22.0372C28.5778 22.5305 28.6046 23.3569 28.0778 23.8837L21.3837 30.5778C20.8573 31.1042 20.0298 31.0769 19.5372 30.5187L14.1565 24.4206C13.6632 23.8615 13.6907 22.9808 14.2199 22.4516L14.6967 21.9748C13.3774 20.6555 13.3789 18.5146 14.6967 17.1967ZM18.5192 18.1523C17.7283 17.3614 16.4433 17.3613 15.6524 18.1523C14.862 18.9427 14.8611 20.2279 15.6512 21.0181L18.5192 18.1523ZM15.6524 22.9304L15.1756 23.4072C15.151 23.4318 15.1487 23.5024 15.1699 23.5264L20.4956 29.5546L27.0569 22.9909L21.0265 17.6699C21.0034 17.6495 20.931 17.6518 20.9073 17.6755L20.4305 18.1523L21.3861 19.1079C21.65 19.3718 21.65 19.7997 21.3861 20.0636C21.1222 20.3274 20.6944 20.3274 20.4305 20.0636L19.4749 19.1079L16.608 21.9748L17.5636 22.9304C17.8275 23.1943 17.8275 23.6222 17.5636 23.8861C17.2997 24.1499 16.8719 24.1499 16.608 23.8861L15.6524 22.9304Z" fill="white"/>
<path fill-rule="evenodd" clip-rule="evenodd" d="M62 17.6164V5.90906H66.8578C68.1967 5.90906 69.2028 6.19011 69.8762 6.75224C70.5496 7.31436 70.8862 8.03367 70.8862 8.9102C70.8862 9.59999 70.6789 10.1573 70.2642 10.5823C69.8495 11.0072 69.3262 11.2882 68.6943 11.4254V11.5398C69.1564 11.5588 69.5898 11.6846 69.9947 11.9171C70.3995 12.1495 70.7283 12.4735 70.981 12.8889C71.2338 13.3043 71.3602 13.8016 71.3602 14.3809C71.3602 15.002 71.2012 15.5565 70.8833 16.0443C70.5653 16.5322 70.0964 16.9161 69.4763 17.1962C68.8562 17.4763 68.092 17.6164 67.1836 17.6164H62ZM64.5652 15.5927H66.6564C67.3752 15.5927 67.8975 15.4594 68.2233 15.1926C68.5492 14.9258 68.7121 14.5733 68.7121 14.135C68.7121 13.6511 68.5334 13.2547 68.1759 12.946C67.8185 12.6373 67.3317 12.483 66.7156 12.483H64.5652V15.5927ZM66.4668 10.8081H64.5652V7.90982H66.5142C67.0829 7.90982 67.5223 8.03939 67.8323 8.29854C68.1424 8.55769 68.2974 8.89877 68.2974 9.32179C68.2974 9.78292 68.1236 10.1459 67.7761 10.4108C67.4285 10.6756 66.9921 10.8081 66.4668 10.8081ZM76.8664 17.7879C75.9462 17.7879 75.1514 17.5983 74.4819 17.2191C73.8125 16.8399 73.2961 16.3102 72.9328 15.6299C72.5694 14.9496 72.3877 14.1598 72.3877 13.2604C72.3877 12.3534 72.5694 11.5598 72.9328 10.8795C73.2961 10.1993 73.8125 9.66954 74.4819 9.29035C75.1514 8.91115 75.9462 8.72156 76.8664 8.72156C77.7866 8.72156 78.5814 8.91115 79.2509 9.29035C79.9203 9.66954 80.4367 10.1993 80.8 10.8795C81.1634 11.5598 81.3451 12.3534 81.3451 13.2604C81.3451 14.1598 81.1634 14.9496 80.8 15.6299C80.4367 16.3102 79.9203 16.8399 79.2509 17.2191C78.5814 17.5983 77.7866 17.7879 76.8664 17.7879ZM78.2971 15.1469C77.9752 15.6499 77.5023 15.9014 76.8782 15.9014C76.2424 15.9014 75.7625 15.6499 75.4387 15.1469C75.1148 14.6438 74.9529 14.0093 74.9529 13.2433C74.9529 12.4773 75.1148 11.8418 75.4387 11.3368C75.7625 10.8319 76.2424 10.5794 76.8782 10.5794C77.5023 10.5794 77.9752 10.8319 78.2971 11.3368C78.619 11.8418 78.7799 12.4773 78.7799 13.2433C78.7799 14.0093 78.619 14.6438 78.2971 15.1469ZM86.8809 17.7879C85.9607 17.7879 85.1659 17.5983 84.4964 17.2191C83.827 16.8399 83.3106 16.3102 82.9473 15.6299C82.5839 14.9496 82.4022 14.1598 82.4022 13.2604C82.4022 12.3534 82.5839 11.5598 82.9473 10.8795C83.3106 10.1993 83.827 9.66954 84.4964 9.29035C85.1659 8.91115 85.9607 8.72156 86.8809 8.72156C87.8011 8.72156 88.596 8.91115 89.2654 9.29035C89.9348 9.66954 90.4512 10.1993 90.8146 10.8795C91.1779 11.5598 91.3596 12.3534 91.3596 13.2604C91.3596 14.1598 91.1779 14.9496 90.8146 15.6299C90.4512 16.3102 89.9348 16.8399 89.2654 17.2191C88.596 17.5983 87.8011 17.7879 86.8809 17.7879ZM88.3116 15.1469C87.9897 15.6499 87.5168 15.9014 86.8928 15.9014C86.2569 15.9014 85.777 15.6499 85.4532 15.1469C85.1293 14.6438 84.9674 14.0093 84.9674 13.2433C84.9674 12.4773 85.1293 11.8418 85.4532 11.3368C85.777 10.8319 86.2569 10.5794 86.8928 10.5794C87.5168 10.5794 87.9897 10.8319 88.3116 11.3368C88.6335 11.8418 88.7944 12.4773 88.7944 13.2433C88.7944 14.0093 88.6335 14.6438 88.3116 15.1469ZM97.6241 8.83589V10.6652H95.912V14.9182C95.912 15.2536 95.991 15.4803 96.149 15.5985C96.307 15.7166 96.5123 15.7757 96.7651 15.7757C96.8836 15.7757 97.0021 15.7652 97.1205 15.7442L97.3931 15.6956L97.79 17.5078L97.5619 17.5699C97.473 17.5923 97.3713 17.6164 97.2568 17.6421C97.0277 17.6935 96.7493 17.725 96.4215 17.7364C95.5052 17.7745 94.7696 17.583 94.2147 17.1619C93.6598 16.7408 93.3844 16.0996 93.3883 15.2383V10.6652H92.1443V8.83589H93.3883V6.73223H95.912V8.83589H97.6241ZM104.179 11.4769L106.489 11.3397C106.379 10.5318 105.993 9.89344 105.331 9.42468C104.67 8.95593 103.764 8.72156 102.615 8.72156C101.45 8.72156 100.515 8.96546 99.8098 9.45326C99.1049 9.94107 98.7543 10.608 98.7583 11.454C98.7504 12.7879 99.6272 13.6244 101.389 13.9636L102.964 14.2665C103.731 14.4152 104.12 14.7067 104.132 15.1411C104.128 15.4003 103.99 15.6137 103.72 15.7814C103.449 15.9491 103.093 16.0329 102.65 16.0329C102.2 16.0329 101.832 15.9415 101.546 15.7585C101.259 15.5756 101.077 15.305 100.998 14.9468L98.5154 15.0725C98.6339 15.911 99.0506 16.5731 99.7654 17.059C100.48 17.5449 101.44 17.7879 102.645 17.7879C103.43 17.7879 104.128 17.6669 104.736 17.4249C105.344 17.1829 105.823 16.8447 106.172 16.4102C106.522 15.9757 106.697 15.4708 106.697 14.8953C106.693 13.6568 105.816 12.8641 104.066 12.5173L102.419 12.1972C101.997 12.1095 101.698 11.9933 101.522 11.8485C101.346 11.7036 101.26 11.5264 101.264 11.3168C101.26 11.0539 101.394 10.8433 101.664 10.6852C101.935 10.527 102.265 10.4479 102.656 10.4479C103.095 10.4479 103.442 10.5489 103.699 10.7509C103.956 10.9529 104.116 11.1949 104.179 11.4769ZM112.908 8.83589V10.6652H111.196V14.9182C111.196 15.2536 111.275 15.4803 111.433 15.5985C111.591 15.7166 111.796 15.7757 112.049 15.7757C112.167 15.7757 112.286 15.7652 112.404 15.7442L112.677 15.6956L113.074 17.5078L112.846 17.5699C112.757 17.5923 112.655 17.6164 112.541 17.6421C112.312 17.6935 112.033 17.725 111.705 17.7364C110.789 17.7745 110.053 17.583 109.499 17.1619C108.944 16.7408 108.668 16.0996 108.672 15.2383V10.6652H107.428V8.83589H108.672V6.73223H111.196V8.83589H112.908ZM114.326 8.83589V17.6164H116.85V12.6488C116.85 12.1076 117.033 11.6684 117.398 11.3311C117.763 10.9939 118.225 10.8252 118.781 10.8252C118.955 10.8252 119.147 10.8376 119.356 10.8624C119.565 10.8871 119.729 10.9186 119.848 10.9567V8.79587C119.599 8.73871 119.334 8.71012 119.054 8.71012C118.544 8.71012 118.094 8.85018 117.703 9.13028C117.312 9.41039 117.034 9.82293 116.868 10.3679H116.773V8.83589H114.326ZM123.263 17.7822C122.394 17.7822 121.673 17.563 121.1 17.1248C120.528 16.6865 120.241 16.0329 120.241 15.164C120.241 14.5085 120.401 13.994 120.721 13.6206C121.041 13.2471 121.461 12.9737 121.98 12.8003C122.396 12.6615 122.837 12.5612 123.304 12.4993L124.153 12.4087C124.689 12.3481 125.09 12.2852 125.354 12.22C125.694 12.1362 125.863 11.9533 125.863 11.6713V11.637C125.863 11.2749 125.746 10.9948 125.511 10.7966C125.276 10.5985 124.943 10.4994 124.513 10.4994C124.059 10.4994 123.697 10.5947 123.429 10.7852C123.16 10.9758 122.982 11.2177 122.895 11.5112L120.561 11.3283C120.735 10.528 121.167 9.89344 121.856 9.42468C122.545 8.95593 123.435 8.72156 124.525 8.72156C125.2 8.72156 125.832 8.82445 126.42 9.03025C127.009 9.23604 127.484 9.55711 127.845 9.99347C128.206 10.4298 128.387 10.9967 128.387 11.6941V17.6164H125.994V16.3988H125.923C125.702 16.8065 125.371 17.139 124.93 17.3963C124.49 17.6535 123.934 17.7822 123.263 17.7822ZM125.348 15.6356C124.993 15.9462 124.538 16.1015 123.985 16.1015C123.598 16.1015 123.28 16.0158 123.029 15.8443C122.778 15.6728 122.653 15.4193 122.653 15.084C122.653 14.741 122.788 14.4799 123.058 14.3008C123.329 14.1217 123.685 14.0017 124.128 13.9407L124.759 13.8464C124.994 13.8102 125.215 13.7673 125.422 13.7177C125.629 13.6682 125.782 13.611 125.881 13.5463V14.478C125.881 14.9392 125.704 15.325 125.348 15.6356ZM130.126 20.9091V8.83589H132.614V10.3107H132.726C132.841 10.0706 133.003 9.82865 133.212 9.58474C133.421 9.34084 133.698 9.136 134.041 8.97022C134.385 8.80445 134.81 8.72156 135.315 8.72156C135.983 8.72156 136.595 8.88829 137.152 9.22175C137.709 9.55521 138.156 10.0563 138.493 10.7252C138.831 11.394 139 12.2315 139 13.2376C139 14.217 138.836 15.043 138.508 15.7157C138.18 16.3883 137.738 16.8971 137.181 17.2419C136.624 17.5868 136 17.7593 135.309 17.7593C134.82 17.7593 134.404 17.6812 134.062 17.5249C133.721 17.3687 133.442 17.1714 133.227 16.9333C133.012 16.6951 132.845 16.454 132.726 16.2101H132.649V20.9091H130.126ZM133.094 11.354C132.762 11.817 132.596 12.4411 132.596 13.2261C132.596 14.0074 132.763 14.6352 133.097 15.1097C133.43 15.5842 133.901 15.8214 134.509 15.8214C135.13 15.8214 135.603 15.5804 135.931 15.0983C136.259 14.6162 136.423 13.9921 136.423 13.2261C136.423 12.4639 136.26 11.8456 135.934 11.3711C135.608 10.8967 135.134 10.6594 134.509 10.6594C133.897 10.6594 133.425 10.891 133.094 11.354Z" fill="#B1B9CC"/>
<path fill-rule="evenodd" clip-rule="evenodd" d="M62 24.9091V36.7358H70.1693V34.6742H64.5558V31.8503H69.7266V29.7887H64.5558V26.9707H70.1457V24.9091H62ZM73.6161 36.3287C74.2831 36.7156 75.081 36.9091 76.0097 36.9091C76.8164 36.9091 77.5148 36.7657 78.1051 36.4788C78.6954 36.192 79.1587 35.7907 79.4952 35.2748C79.8316 34.7589 80.0195 34.1622 80.0589 33.4846H77.686C77.6113 33.9581 77.4263 34.3229 77.1312 34.5789C76.836 34.8349 76.472 34.963 76.0392 34.963C75.4529 34.963 74.9836 34.731 74.6314 34.2671C74.2792 33.8032 74.1031 33.1478 74.1031 32.3008C74.1031 31.4615 74.2802 30.8128 74.6344 30.3547C74.9885 29.8965 75.4568 29.6675 76.0392 29.6675C76.4996 29.6675 76.8724 29.8032 77.1577 30.0746C77.443 30.346 77.6191 30.7031 77.686 31.1458H80.0589C80.0235 30.4605 79.8336 29.8638 79.4893 29.3556C79.145 28.8475 78.6747 28.4529 78.0786 28.1718C77.4824 27.8908 76.7888 27.7503 75.9979 27.7503C75.081 27.7503 74.29 27.9437 73.625 28.3306C72.96 28.7175 72.4474 29.2546 72.0874 29.9418C71.7273 30.629 71.5473 31.4269 71.5473 32.3354C71.5473 33.2324 71.7253 34.0255 72.0815 34.7146C72.4376 35.4038 72.9491 35.9418 73.6161 36.3287ZM85.551 36.9091C84.6342 36.9091 83.8422 36.7175 83.1752 36.3345C82.5082 35.9514 81.9937 35.4163 81.6317 34.7291C81.2696 34.0419 81.0886 33.244 81.0886 32.3354C81.0886 31.4192 81.2696 30.6174 81.6317 29.9302C81.9937 29.243 82.5082 28.7079 83.1752 28.3248C83.8422 27.9418 84.6342 27.7503 85.551 27.7503C86.4679 27.7503 87.2598 27.9418 87.9269 28.3248C88.5939 28.7079 89.1084 29.243 89.4704 29.9302C89.8324 30.6174 90.0134 31.4192 90.0134 32.3354C90.0134 33.244 89.8324 34.0419 89.4704 34.7291C89.1084 35.4163 88.5939 35.9514 87.9269 36.3345C87.2598 36.7175 86.4679 36.9091 85.551 36.9091ZM86.9765 34.2411C86.6558 34.7493 86.1846 35.0034 85.5628 35.0034C84.9293 35.0034 84.4512 34.7493 84.1285 34.2411C83.8058 33.7329 83.6445 33.0919 83.6445 32.3181C83.6445 31.5443 83.8058 30.9023 84.1285 30.3922C84.4512 29.8821 84.9293 29.6271 85.5628 29.6271C86.1846 29.6271 86.6558 29.8821 86.9765 30.3922C87.2972 30.9023 87.4576 31.5443 87.4576 32.3181C87.4576 33.0919 87.2972 33.7329 86.9765 34.2411ZM91.4328 27.8657H93.8292V29.4307H93.9355C94.1244 28.9071 94.4402 28.4962 94.8829 28.1978C95.3256 27.8994 95.8519 27.7503 96.4618 27.7503C97.0836 27.7503 97.6128 27.9014 98.0496 28.2036C98.4864 28.5058 98.7776 28.9148 98.9232 29.4307H99.0177C99.2026 28.9225 99.5381 28.5154 100.024 28.2093C100.51 27.9033 101.086 27.7503 101.751 27.7503C102.597 27.7503 103.284 28.013 103.814 28.5385C104.343 29.064 104.607 29.808 104.607 30.7705V36.7358H102.099V31.2555C102.099 30.7628 101.965 30.3932 101.697 30.1468C101.43 29.9004 101.095 29.7772 100.694 29.7772C100.238 29.7772 99.8814 29.9196 99.6256 30.2045C99.3699 30.4894 99.242 30.8609 99.242 31.3191V36.7358H96.8042V31.2036C96.8042 30.7685 96.6773 30.4221 96.4234 30.1641C96.1696 29.9062 95.8361 29.7772 95.4229 29.7772C95.0058 29.7772 94.6556 29.9264 94.3723 30.2247C94.0889 30.5231 93.9473 30.9187 93.9473 31.4115V36.7358H91.4328V27.8657ZM108.766 27.8657H106.369V36.7358H108.884V31.4115C108.884 30.9187 109.025 30.5231 109.309 30.2247C109.592 29.9264 109.942 29.7772 110.359 29.7772C110.773 29.7772 111.106 29.9062 111.36 30.1641C111.614 30.4221 111.741 30.7685 111.741 31.2036V36.7358H114.178V31.3191C114.178 30.8609 114.306 30.4894 114.562 30.2045C114.818 29.9196 115.174 29.7772 115.63 29.7772C116.032 29.7772 116.366 29.9004 116.634 30.1468C116.901 30.3932 117.035 30.7628 117.035 31.2555V36.7358H119.544V30.7705C119.544 29.808 119.279 29.064 118.75 28.5385C118.221 28.013 117.533 27.7503 116.687 27.7503C116.022 27.7503 115.446 27.9033 114.96 28.2093C114.474 28.5154 114.139 28.9225 113.954 29.4307H113.86C113.714 28.9148 113.423 28.5058 112.986 28.2036C112.549 27.9014 112.02 27.7503 111.398 27.7503C110.788 27.7503 110.262 27.8994 109.819 28.1978C109.377 28.4962 109.061 28.9071 108.872 29.4307H108.766V27.8657ZM125.437 36.9091C124.509 36.9091 123.708 36.7233 123.035 36.3518C122.362 35.9803 121.845 35.4529 121.483 34.7695C121.121 34.0861 120.94 33.2767 120.94 32.3412C120.94 31.4288 121.121 30.628 121.483 29.9389C121.845 29.2498 122.355 28.7127 123.014 28.3277C123.673 27.9427 124.448 27.7503 125.337 27.7503C126.136 27.7503 126.857 27.9158 127.5 28.2469C128.144 28.578 128.654 29.0775 129.032 29.7454C129.41 30.4134 129.599 31.2498 129.599 32.2546V32.9302H123.425C123.425 33.5982 123.61 34.1198 123.979 34.501C124.349 34.8821 124.849 35.0727 125.479 35.0727C125.9 35.0727 126.264 34.9861 126.571 34.8128C126.878 34.6396 127.094 34.3836 127.22 34.0448L129.546 34.1949C129.369 35.0188 128.92 35.6771 128.2 36.1699C127.48 36.6627 126.559 36.9091 125.437 36.9091ZM127.232 31.4057H123.425C123.452 30.9014 123.645 30.4721 124.003 30.1179C124.361 29.7637 124.82 29.5866 125.378 29.5866C125.925 29.5866 126.37 29.7579 126.712 30.1006C127.055 30.4432 127.228 30.8783 127.232 31.4057ZM131.018 27.8657H133.456V29.4134H133.55C133.716 28.8629 133.993 28.4461 134.383 28.1631C134.772 27.8802 135.221 27.7387 135.728 27.7387C136.008 27.7387 136.271 27.7676 136.519 27.8253V30.0082C136.401 29.9697 136.238 29.9379 136.029 29.9129C135.821 29.8879 135.63 29.8754 135.457 29.8754C134.902 29.8754 134.443 30.0457 134.079 30.3864C133.715 30.7272 133.533 31.1708 133.533 31.7175V36.7358H131.018V27.8657ZM138.868 36.3287C139.535 36.7156 140.333 36.9091 141.262 36.9091C142.069 36.9091 142.767 36.7657 143.357 36.4788C143.948 36.192 144.411 35.7907 144.747 35.2748C145.084 34.7589 145.272 34.1622 145.311 33.4846H142.938C142.863 33.9581 142.678 34.3229 142.383 34.5789C142.088 34.8349 141.724 34.963 141.291 34.963C140.705 34.963 140.236 34.731 139.884 34.2671C139.531 33.8032 139.355 33.1478 139.355 32.3008C139.355 31.4615 139.532 30.8128 139.887 30.3547C140.241 29.8965 140.709 29.6675 141.291 29.6675C141.752 29.6675 142.125 29.8032 142.41 30.0746C142.695 30.346 142.871 30.7031 142.938 31.1458H145.311C145.276 30.4605 145.086 29.8638 144.741 29.3556C144.397 28.8475 143.927 28.4529 143.331 28.1718C142.735 27.8908 142.041 27.7503 141.25 27.7503C140.333 27.7503 139.542 27.9437 138.877 28.3306C138.212 28.7175 137.7 29.2546 137.34 29.9418C136.979 30.629 136.799 31.4269 136.799 32.3354C136.799 33.2324 136.978 34.0255 137.334 34.7146C137.69 35.4038 138.201 35.9418 138.868 36.3287ZM150.839 36.9091C149.91 36.9091 149.109 36.7233 148.436 36.3518C147.763 35.9803 147.246 35.4529 146.884 34.7695C146.522 34.0861 146.341 33.2767 146.341 32.3412C146.341 31.4288 146.522 30.628 146.884 29.9389C147.246 29.2498 147.756 28.7127 148.416 28.3277C149.075 27.9427 149.849 27.7503 150.738 27.7503C151.537 27.7503 152.258 27.9158 152.902 28.2469C153.545 28.578 154.056 29.0775 154.433 29.7454C154.811 30.4134 155 31.2498 155 32.2546V32.9302H148.826C148.826 33.5982 149.011 34.1198 149.381 34.501C149.751 34.8821 150.25 35.0727 150.88 35.0727C151.301 35.0727 151.665 34.9861 151.972 34.8128C152.279 34.6396 152.495 34.3836 152.621 34.0448L154.947 34.1949C154.77 35.0188 154.321 35.6771 153.601 36.1699C152.881 36.6627 151.96 36.9091 150.839 36.9091ZM149.404 30.1179C149.046 30.4721 148.853 30.9014 148.826 31.4057H152.633C152.629 30.8783 152.456 30.4432 152.114 30.1006C151.771 29.7579 151.327 29.5866 150.78 29.5866C150.221 29.5866 149.762 29.7637 149.404 30.1179Z" fill="#3167EB"/>
</svg>
