<svg width="34" height="22" viewBox="0 0 34 22" fill="none" xmlns="http://www.w3.org/2000/svg">
<path d="M0.5 6C0.5 2.96243 2.96243 0.5 6 0.5H28C31.0376 0.5 33.5 2.96243 33.5 6V16C33.5 19.0376 31.0376 21.5 28 21.5H6C2.96243 21.5 0.5 19.0376 0.5 16V6Z" fill="white" stroke="#E4E4E4"/>
<path fill-rule="evenodd" clip-rule="evenodd" d="M15.0897 10.8527C15.0897 9.01576 15.9384 7.38029 17.2598 6.3219C16.2854 5.54145 15.0545 5.07422 13.7149 5.07422C10.5587 5.07422 8 7.66135 8 10.8527C8 14.044 10.5587 16.6311 13.7149 16.6311C15.0545 16.6311 16.2854 16.1639 17.2598 15.3834C15.9384 14.3251 15.0897 12.6896 15.0897 10.8527Z" fill="#EB001B"/>
<path fill-rule="evenodd" clip-rule="evenodd" d="M15.0898 10.8528C15.0898 12.6897 15.9385 14.3252 17.26 15.3836C18.5813 14.3252 19.43 12.6897 19.43 10.8528C19.43 9.01588 18.5813 7.38041 17.26 6.32202C15.9385 7.38041 15.0898 9.01588 15.0898 10.8528Z" fill="#FF5E00"/>
<path fill-rule="evenodd" clip-rule="evenodd" d="M20.8046 5.07422C19.465 5.07422 18.2341 5.54145 17.2598 6.3219C18.5811 7.38037 19.4298 9.01576 19.4298 10.8527C19.4298 12.6896 18.5811 14.3251 17.2598 15.3834C18.2341 16.1639 19.465 16.6311 20.8046 16.6311C23.9608 16.6311 26.5195 14.044 26.5195 10.8527C26.5195 7.66135 23.9608 5.07422 20.8046 5.07422Z" fill="#F79E1C"/>
</svg>
