<svg width="30" height="40" viewBox="0 0 30 40" fill="none" xmlns="http://www.w3.org/2000/svg">
<path fill-rule="evenodd" clip-rule="evenodd" d="M26.0002 13.6666H24.1668V9.99992C24.1668 4.93992 20.0602 0.833252 15.0002 0.833252C9.94016 0.833252 5.8335 4.93992 5.8335 9.99992V13.6666H4.00016C1.9835 13.6666 0.333496 15.3166 0.333496 17.3333V35.6666C0.333496 37.6833 1.9835 39.3333 4.00016 39.3333H26.0002C28.0168 39.3333 29.6668 37.6833 29.6668 35.6666V17.3333C29.6668 15.3166 28.0168 13.6666 26.0002 13.6666ZM15.0002 30.1666C12.9835 30.1666 11.3335 28.5166 11.3335 26.4999C11.3335 24.4833 12.9835 22.8333 15.0002 22.8333C17.0168 22.8333 18.6668 24.4833 18.6668 26.4999C18.6668 28.5166 17.0168 30.1666 15.0002 30.1666ZM9.50016 13.6666V9.99992C9.50016 6.95659 11.9568 4.49992 15.0002 4.49992C18.0435 4.49992 20.5002 6.95659 20.5002 9.99992V13.6666H9.50016Z" fill="#3167EB"/>
</svg>
