<svg width="34" height="22" viewBox="0 0 34 22" fill="none" xmlns="http://www.w3.org/2000/svg">
<path d="M0.5 6C0.5 2.96243 2.96243 0.5 6 0.5H28C31.0376 0.5 33.5 2.96243 33.5 6V16C33.5 19.0376 31.0376 21.5 28 21.5H6C2.96243 21.5 0.5 19.0376 0.5 16V6Z" fill="white" stroke="#E4E4E4"/>
<path d="M20.5113 5.9081C19.9652 5.27506 18.9781 5.00366 17.7152 5.00366H14.05C13.7918 5.00367 13.572 5.19455 13.5316 5.45383L12.0054 15.2976C11.9751 15.4917 12.1229 15.6675 12.3163 15.6675H14.5791L15.1474 12.0017L15.1298 12.1165C15.1703 11.8573 15.3882 11.6662 15.6462 11.6662H16.7215C18.8338 11.6662 20.4879 10.7936 20.971 8.26941C20.9854 8.19476 20.9978 8.12209 21.0085 8.05111C20.9475 8.01826 20.9475 8.01826 21.0085 8.05111C21.1524 7.11813 21.0075 6.48306 20.5113 5.9081Z" fill="#27346A"/>
<path d="M16.0132 7.71502C16.0751 7.68506 16.1428 7.66954 16.2113 7.66958H19.0847C19.425 7.66958 19.7424 7.6921 20.0324 7.73957C20.1136 7.75273 20.1943 7.76844 20.2745 7.78668C20.3882 7.81219 20.5005 7.84341 20.6112 7.88023C20.7537 7.92866 20.8865 7.98506 21.0086 8.05111C21.1524 7.11777 21.0075 6.48306 20.5113 5.9081C19.9649 5.27506 18.9781 5.00366 17.7152 5.00366H14.0496C13.7916 5.00366 13.572 5.19475 13.5316 5.45383L12.0054 15.2973C11.9751 15.4917 12.1229 15.6672 12.316 15.6672H14.5791L15.7581 8.06338C15.7817 7.91166 15.877 7.78141 16.0132 7.71502Z" fill="#27346A"/>
<path d="M20.9711 8.26933C20.4879 10.7932 18.8339 11.6661 16.7215 11.6661H15.6459C15.3879 11.6661 15.1699 11.8573 15.1299 12.1164L14.4229 16.6744C14.3965 16.8443 14.5256 16.9982 14.6946 16.9982H16.6021C16.8278 16.9982 17.02 16.8312 17.0553 16.6044L17.0739 16.5056L17.4334 14.1884L17.4565 14.0603C17.4918 13.8336 17.6839 13.6666 17.9097 13.6665H18.1951C20.0429 13.6665 21.4898 12.903 21.9126 10.695C22.0891 9.77229 21.9977 9.0019 21.5309 8.46077C21.3893 8.29687 21.2134 8.16151 21.0086 8.05103C20.9975 8.12237 20.9854 8.19468 20.9711 8.26933Z" fill="#2790C3"/>
<path d="M20.5027 7.84597C20.4273 7.8236 20.3513 7.80379 20.2747 7.78658C20.1944 7.76864 20.1137 7.75303 20.0326 7.73979C19.7422 7.69199 19.4251 7.66943 19.0845 7.66943H16.2114C16.1428 7.66928 16.0751 7.68494 16.0133 7.71523C15.877 7.78143 15.7815 7.91178 15.7582 8.0636L15.1475 12.0016L15.1299 12.1164C15.1701 11.8572 15.388 11.6661 15.646 11.6661H16.7216C18.834 11.6661 20.488 10.7935 20.9711 8.26931C20.9855 8.19465 20.9976 8.12231 21.0087 8.051C20.8863 7.98532 20.7539 7.92856 20.6113 7.88045C20.5753 7.86831 20.5391 7.85682 20.5027 7.84597" fill="#1F264F"/>
</svg>
