<svg width="150" height="42" viewBox="0 0 150 42" fill="none" xmlns="http://www.w3.org/2000/svg">
<path fill-rule="evenodd" clip-rule="evenodd" d="M52.1676 8.5228H44.5414V18.4413H36.5992V8.5228H28.97V33.4789H36.5992V23.6612H44.5414V33.4789H52.1676V8.5228ZM78.7096 28.4658V8.5228H71.08V33.4789H84.8745L86.0222 28.4658H78.7096ZM57.8111 33.4789H65.4386V8.5228H57.8111V33.4789ZM88.7404 33.4789H96.3666V8.5228H88.7404V33.4789ZM133.981 14.8903C133.981 13.5342 135.341 12.9059 137.534 12.9059C139.937 12.9059 142.551 13.4287 144.325 14.1625L143.701 8.73123C141.715 8.31436 139.937 8 136.699 8C130.534 8 126.355 10.4287 126.355 15.5203C126.355 24.2882 138.27 22.5152 138.27 26.5869C138.27 28.1519 137.117 28.9852 134.295 28.9852C131.791 28.9852 127.921 28.1519 125.625 27.0038L126.461 32.7494C128.759 33.5831 131.893 34 134.402 34C140.774 34 146 31.911 146 25.6443C146 17.2937 133.981 18.8599 133.981 14.8903ZM112.462 27.5266C119.562 27.5266 124.056 23.8696 124.056 17.5021C124.056 10.5059 119.251 8 111.413 8C108.384 8 104.725 8.20843 102.112 8.5228V33.4789H109.744V27.5266H112.462ZM116.531 17.6063C116.531 20.843 114.968 23.0359 110.996 23.0359H109.744V12.7262C110.186 12.7004 110.604 12.7004 110.996 12.7004C114.756 12.7004 116.531 14.4738 116.531 17.6063ZM14.344 27.5266C21.4483 27.5266 25.9404 23.8696 25.9404 17.5021C25.9404 10.5059 21.1335 8 13.299 8C10.2676 8 6.61048 8.20843 4 8.5228V33.4789H11.6257V27.5266H14.344ZM18.4203 17.6063C18.4203 20.843 16.8518 23.0359 12.8815 23.0359H11.6257V12.7262C12.0724 12.7004 12.4898 12.7004 12.8815 12.7004C16.6401 12.7004 18.4203 14.4738 18.4203 17.6063Z" fill="#969696"/>
</svg>
